<?xml version="1.0" encoding="UTF-8"?>
<svg xmlns="http://www.w3.org/2000/svg" version="1.1" xmlns:xlink="http://www.w3.org/1999/xlink" viewBox="0 0 3000 1000">
  <!-- Generator: Adobe Illustrator 29.0.0, SVG Export Plug-In . SVG Version: 2.1.0 Build 186)  -->
  <defs>
    <style>
      .st0 {
        fill: url(#linear-gradient2);
      }

      .st1 {
        fill: url(#linear-gradient10);
      }

      .st2 {
        fill: url(#linear-gradient1);
      }

      .st3 {
        fill: url(#linear-gradient9);
      }

      .st4 {
        fill: url(#linear-gradient8);
      }

      .st5 {
        fill: url(#linear-gradient11);
      }

      .st6 {
        fill: url(#linear-gradient12);
      }

      .st7 {
        fill: url(#linear-gradient7);
      }

      .st8 {
        fill: url(#linear-gradient4);
      }

      .st9 {
        fill: url(#linear-gradient5);
      }

      .st10 {
        fill: url(#linear-gradient3);
      }

      .st11 {
        fill: url(#linear-gradient6);
      }

      .st12 {
        fill: url(#linear-gradient);
      }
    </style>
    <linearGradient id="linear-gradient" x1="454.52" y1="571.6" x2="454.52" y2="902.2" gradientUnits="userSpaceOnUse">
      <stop offset="0" stop-color="#9a2eaf"/>
      <stop offset=".5" stop-color="#096779"/>
      <stop offset="1" stop-color="#00ffde"/>
    </linearGradient>
    <linearGradient id="linear-gradient1" x1="304.79" y1="101.26" x2="304.79" xlink:href="#linear-gradient"/>
    <linearGradient id="linear-gradient2" x1="885.92" y1="651.69" x2="454" y2="651.69" xlink:href="#linear-gradient"/>
    <linearGradient id="linear-gradient3" x1="1646.95" y1="668.59" x2="1260.17" y2="-1.35" gradientUnits="userSpaceOnUse">
      <stop offset="0" stop-color="#9a2eaf"/>
      <stop offset=".5" stop-color="#096779"/>
      <stop offset="1" stop-color="#00ffde"/>
    </linearGradient>
    <linearGradient id="linear-gradient4" x1="2218.65" y1="1251.8" x2="1581.11" y2="147.54" xlink:href="#linear-gradient3"/>
    <linearGradient id="linear-gradient5" x1="2218.65" y1="1251.8" x2="1581.11" y2="147.54" xlink:href="#linear-gradient3"/>
    <linearGradient id="linear-gradient6" x1="2218.65" y1="1251.8" x2="1581.11" y2="147.54" xlink:href="#linear-gradient3"/>
    <linearGradient id="linear-gradient7" x1="2218.65" y1="1251.8" x2="1581.11" y2="147.54" xlink:href="#linear-gradient3"/>
    <linearGradient id="linear-gradient8" x1="2218.65" y1="1251.8" x2="1581.11" y2="147.54" xlink:href="#linear-gradient3"/>
    <linearGradient id="linear-gradient9" x1="2218.65" y1="1251.8" x2="1581.11" y2="147.54" xlink:href="#linear-gradient3"/>
    <linearGradient id="linear-gradient10" x1="2218.65" y1="1251.8" x2="1581.11" y2="147.54" xlink:href="#linear-gradient3"/>
    <linearGradient id="linear-gradient11" x1="2218.65" y1="1251.8" x2="1581.11" y2="147.54" xlink:href="#linear-gradient3"/>
    <linearGradient id="linear-gradient12" x1="2218.65" y1="1251.8" x2="1581.11" y2="147.54" xlink:href="#linear-gradient3"/>
  </defs>
  <g id="Layer_1">
    <path id="Door" class="st12" d="M573.11,861.17v41.03h-237.2v-41.03h237.2ZM439.85,656.09h-80.98v195.74h80.98v-195.74ZM548.76,656.09h-80.98v195.74h80.98v-195.74ZM358.86,648.26h189.9c-1.52-8.16-7.15-32.57-29.12-52.48-26.82-24.31-58.59-24.32-65.65-24.15-7.01-.2-39.07-.34-66.06,24.15-21.94,19.9-27.56,44.3-29.07,52.48Z"/>
    <path id="Left_Bolt" class="st2" d="M87.54,902.2c66.81-126.74,133.62-253.48,200.44-380.22l-95.56,12.96c105.69-144.56,211.37-289.12,317.06-433.67-29.29,107.3-58.58,214.61-87.87,321.91l100.42-21.87c-144.83,166.96-289.66,333.93-434.48,500.89Z"/>
    <path class="st0" d="M651.77,579.9v-131.54h-19.57c-.05-15.73-.11-31.45-.16-47.18h133.55v47.24c-7.02-.02-14.05-.04-21.07-.06.13,86.57.25,173.15.38,259.72-31.04-42.73-62.08-85.45-93.12-128.18ZM454,479.74l314.69,422.46h117.23l-215.96-297.27-147.93-203.62-68.03,78.43Z"/>
  </g>
  <g id="Layer_2">
    <g>
      <path class="st10" d="M935.27,487l124.25-372.5h118.25l128,372.5h-99l-51.75-162.75c-8.34-27.16-16.38-56.04-24.12-86.62-7.75-30.58-15.54-62.29-23.38-95.12h19.75c-7.5,33-14.75,64.79-21.75,95.38-7,30.59-14.42,59.38-22.25,86.38l-50,162.75h-98ZM1019.77,407.75v-67.5h201.75v67.5h-201.75Z"/>
      <path class="st10" d="M1461.52,492c-41,0-73-10.29-96-30.88-23-20.58-34.5-49.96-34.5-88.12v-22.5h88.25v24c0,15.84,3.75,27.75,11.25,35.75s17.83,12,31,12,23.46-4,30.88-12c7.41-8,11.12-20.08,11.12-36.25V114.5h87v258c0,38.34-11.34,67.84-34,88.5-22.67,20.67-54.34,31-95,31Z"/>
      <path class="st10" d="M1661.52,275l22-160.5h84.5l-49,160.5h-57.5Z"/>
      <path class="st10" d="M1901.77,492.25c-23.84,0-44.92-3.38-63.25-10.12-18.34-6.75-33.25-16.5-44.75-29.25s-18.92-28.04-22.25-45.88l81-12.75c3.5,12.17,9.41,21.34,17.75,27.5,8.33,6.17,19.91,9.25,34.75,9.25,12.16,0,21.75-2.12,28.75-6.38s10.5-9.88,10.5-16.88c0-6.5-2.79-11.71-8.38-15.62-5.59-3.91-14.21-7.04-25.88-9.38l-48.75-9.5c-27.67-5.33-48.38-14.71-62.12-28.12-13.75-13.41-20.62-30.88-20.62-52.38,0-18.66,5.04-34.58,15.12-47.75,10.08-13.16,24.33-23.29,42.75-30.38,18.41-7.08,40.12-10.62,65.12-10.62,23.33,0,43.62,3.12,60.88,9.38s31.16,15.17,41.75,26.75c10.58,11.59,17.46,25.38,20.62,41.38l-77,12.25c-2.5-9.33-7.62-16.62-15.38-21.88s-17.54-7.88-29.38-7.88c-10.5,0-19.38,2.12-26.62,6.38s-10.88,9.96-10.88,17.12c0,5.67,2.25,10.62,6.75,14.88s12.75,7.54,24.75,9.88l53.5,10c27.66,5.34,48.29,14.17,61.88,26.5,13.58,12.34,20.38,28.67,20.38,49,0,19.17-5.62,35.84-16.88,50-11.25,14.17-26.71,25.12-46.38,32.88-19.67,7.75-42.25,11.62-67.75,11.62Z"/>
    </g>
    <g>
      <path class="st8" d="M933.52,877.92v-356.49h247.39v68.91h-162.93v73.69h150.01v67.47h-150.01v77.52h162.7v68.91h-247.15Z"/>
      <path class="st9" d="M1315.61,521.42v356.49h-83.5v-356.49h83.5Z"/>
      <path class="st11" d="M1495.53,882.94c-27.91,0-52-5.54-72.26-16.63-20.26-11.08-35.77-26.92-46.54-47.49s-16.15-45.14-16.15-73.69,5.38-51.52,16.15-72.26c10.77-20.73,26.04-36.88,45.82-48.45,19.78-11.56,43.07-17.35,69.86-17.35,18.82,0,36.09,2.95,51.8,8.85,15.71,5.9,29.35,14.64,40.91,26.2,11.56,11.57,20.49,25.8,26.8,42.71,6.3,16.91,9.45,36.45,9.45,58.62v21.05h-231.12v-48.57h191.41l-39,11.48c0-12.44-1.88-23.13-5.62-32.06-3.75-8.93-9.29-15.79-16.63-20.58-7.34-4.79-16.43-7.18-27.28-7.18s-20.02,2.43-27.51,7.3c-7.5,4.87-13.2,11.65-17.11,20.34-3.91,8.7-5.86,18.86-5.86,30.51v34.93c0,13.72,2.27,25.16,6.82,34.33,4.55,9.17,10.89,16.03,19.02,20.58,8.14,4.55,17.62,6.82,28.47,6.82,7.5,0,14.31-1.04,20.46-3.11,6.14-2.07,11.4-5.18,15.79-9.33,4.38-4.15,7.69-9.17,9.93-15.07l74.41,12.2c-4.47,15.31-12.16,28.67-23.09,40.08-10.93,11.41-24.73,20.22-41.39,26.44-16.67,6.22-35.85,9.33-57.54,9.33Z"/>
      <path class="st7" d="M1809.44,610.43v61.97h-167v-61.97h167ZM1677.85,546.78h83.5v249.31c0,7.02,1.67,12.24,5.02,15.67,3.35,3.43,8.77,5.14,16.27,5.14,2.87,0,6.9-.32,12.08-.96,5.18-.64,8.89-1.28,11.13-1.91l10.77,60.77c-9.41,2.71-18.5,4.55-27.28,5.5-8.77.96-17.07,1.44-24.88,1.44-28.39,0-49.93-6.66-64.6-19.98-14.68-13.32-22.01-32.74-22.01-58.26v-256.72Z"/>
      <path class="st4" d="M1852.27,877.92v-267.49h81.11v48.81h2.87c4.79-17.71,12.72-30.82,23.81-39.36,11.08-8.53,23.96-12.8,38.64-12.8,3.83,0,7.85.24,12.08.72,4.22.48,8.09,1.2,11.6,2.15v72.73c-3.99-1.44-9.21-2.51-15.67-3.23-6.46-.72-12.24-1.08-17.35-1.08-10.21,0-19.38,2.27-27.51,6.82s-14.52,10.81-19.14,18.78c-4.63,7.98-6.94,17.31-6.94,27.99v145.95h-83.5Z"/>
      <path class="st3" d="M2100.86,579.08c-11.81,0-21.93-3.95-30.39-11.84-8.46-7.9-12.68-17.35-12.68-28.35s4.22-20.66,12.68-28.47c8.45-7.81,18.58-11.72,30.39-11.72s22.17,3.91,30.62,11.72c8.45,7.82,12.68,17.39,12.68,28.71s-4.23,20.42-12.68,28.23c-8.46,7.82-18.66,11.72-30.62,11.72ZM2059.23,877.92v-267.49h83.5v267.49h-83.5Z"/>
      <path class="st1" d="M2322.17,882.94c-27.92,0-51.92-5.78-72.02-17.35-20.1-11.56-35.53-27.67-46.3-48.33-10.77-20.65-16.15-44.7-16.15-72.14s5.38-51.72,16.15-72.38c10.77-20.65,26.2-36.76,46.3-48.33,20.1-11.56,44.1-17.35,72.02-17.35,17.07,0,32.7,2.24,46.89,6.7,14.19,4.47,26.64,10.81,37.32,19.02,10.68,8.22,19.34,18.18,25.96,29.91,6.62,11.72,10.96,24.85,13.04,39.36l-77.04,12.92c-1.28-7.02-3.23-13.24-5.86-18.66-2.63-5.42-5.82-10.05-9.57-13.88-3.75-3.83-8.13-6.7-13.16-8.61-5.03-1.91-10.57-2.87-16.63-2.87-10.69,0-19.78,2.91-27.28,8.73-7.5,5.82-13.2,14.28-17.11,25.36-3.91,11.09-5.86,24.29-5.86,39.6s1.95,28.55,5.86,39.72c3.91,11.17,9.61,19.74,17.11,25.72,7.5,5.98,16.59,8.97,27.28,8.97,6.22,0,11.8-1,16.75-2.99,4.94-1.99,9.37-4.94,13.28-8.85,3.91-3.91,7.18-8.69,9.81-14.36,2.63-5.66,4.5-12.08,5.62-19.26l77.04,12.44c-2.08,14.99-6.42,28.43-13.04,40.31-6.62,11.88-15.28,22.05-25.96,30.51-10.69,8.46-23.17,14.92-37.44,19.38-14.28,4.46-29.95,6.7-47.01,6.7Z"/>
      <path class="st5" d="M2569.32,882.7c-17.07,0-32.26-2.91-45.58-8.73-13.32-5.82-23.73-14.59-31.22-26.32-7.5-11.72-11.25-26.36-11.25-43.9,0-14.83,2.59-27.35,7.78-37.56,5.18-10.21,12.4-18.5,21.65-24.88,9.25-6.38,19.86-11.25,31.82-14.59s24.72-5.58,38.28-6.7c15.15-1.28,27.35-2.67,36.61-4.19,9.25-1.51,16.03-3.79,20.34-6.82,4.31-3.03,6.46-7.26,6.46-12.68v-.96c0-6.22-1.44-11.48-4.31-15.79s-7.02-7.57-12.44-9.81c-5.42-2.23-11.96-3.35-19.62-3.35s-14.48,1.12-20.46,3.35c-5.98,2.24-10.89,5.42-14.71,9.57-3.83,4.15-6.54,9.01-8.13,14.59l-75.61-9.81c3.51-15.31,10.41-28.75,20.7-40.32,10.29-11.56,23.77-20.58,40.44-27.04,16.67-6.46,36.17-9.69,58.5-9.69,16.59,0,32.1,1.96,46.54,5.86,14.43,3.91,27.07,9.65,37.92,17.23,10.84,7.58,19.3,16.91,25.36,27.99,6.06,11.09,9.09,23.81,9.09,38.16v181.6h-78.48v-37.56h-2.15c-4.79,9.25-10.89,16.99-18.3,23.21-7.42,6.22-16.03,10.97-25.84,14.24-9.81,3.27-20.94,4.91-33.38,4.91ZM2594.69,827.43c9.41,0,17.9-1.91,25.48-5.74,7.57-3.83,13.6-9.09,18.06-15.79,4.46-6.7,6.7-14.43,6.7-23.21v-25.6c-2.39,1.28-5.38,2.47-8.97,3.59-3.59,1.12-7.54,2.12-11.84,2.99-4.31.88-8.61,1.67-12.92,2.39s-8.46,1.4-12.44,2.03c-8.13,1.12-15.07,3.03-20.82,5.74-5.74,2.71-10.13,6.22-13.16,10.53-3.03,4.31-4.55,9.49-4.55,15.55s1.51,10.89,4.55,14.95c3.03,4.07,7.1,7.18,12.2,9.33,5.1,2.15,11.01,3.23,17.71,3.23Z"/>
      <path class="st6" d="M2866.24,521.42v356.49h-83.5v-356.49h83.5Z"/>
    </g>
  </g>
</svg>